<svg width="320" height="320" viewBox="0 0 320 320" fill="none" xmlns="http://www.w3.org/2000/svg">
<rect opacity="0.9" width="320" height="320" fill="#232536" fill-opacity="0.99"/>
<g clip-path="url(#clip0_1_1259)">
<path d="M53.0334 270.567C59.0697 270.567 62.3722 265.789 62.3722 261.647C62.3722 261.513 62.3691 261.375 62.3628 261.241C63.0052 260.797 63.5597 260.247 64 259.618C63.4017 259.872 62.7664 260.038 62.1159 260.11C62.8009 259.718 63.3137 259.102 63.5594 258.376C62.915 258.741 62.2104 258.998 61.4756 259.137C60.9806 258.635 60.326 258.302 59.6131 258.19C58.9003 258.079 58.1688 258.195 57.5318 258.52C56.8949 258.846 56.3879 259.363 56.0892 259.991C55.7906 260.619 55.717 261.324 55.8797 261.996C54.575 261.934 53.2986 261.61 52.1333 261.046C50.968 260.482 49.9398 259.69 49.1153 258.722C48.6963 259.413 48.568 260.229 48.7567 261.006C48.9453 261.784 49.4367 262.463 50.1309 262.907C49.6098 262.891 49.1 262.757 48.6438 262.515V262.554C48.6433 263.279 48.9054 263.981 49.3855 264.541C49.8657 265.102 50.5342 265.486 51.2775 265.629C50.7947 265.755 50.288 265.773 49.7966 265.683C50.0063 266.305 50.4144 266.85 50.9638 267.241C51.5133 267.631 52.1767 267.848 52.8616 267.862C51.6989 268.734 50.2628 269.207 48.7844 269.205C48.5222 269.204 48.2603 269.189 48 269.159C49.5019 270.079 51.249 270.568 53.0334 270.567Z" fill="white"/>
</g>
<g clip-path="url(#clip1_1_1259)">
<path d="M98.6641 258.093C100.802 258.093 101.055 258.102 101.895 258.138C102.677 258.17 103.098 258.296 103.38 258.4C103.752 258.538 104.02 258.705 104.298 258.97C104.58 259.239 104.752 259.493 104.895 259.848C105.005 260.117 105.136 260.523 105.17 261.266C105.208 262.072 105.217 262.314 105.217 264.352C105.217 266.394 105.208 266.636 105.17 267.439C105.136 268.185 105.005 268.588 104.895 268.857C104.752 269.212 104.577 269.469 104.298 269.734C104.017 270.003 103.752 270.167 103.38 270.305C103.098 270.409 102.673 270.534 101.895 270.567C101.052 270.603 100.798 270.612 98.6641 270.612C96.5266 270.612 96.2734 270.603 95.4328 270.567C94.6516 270.534 94.2297 270.409 93.9484 270.305C93.5766 270.167 93.3078 270 93.0297 269.734C92.7484 269.466 92.5766 269.212 92.4328 268.857C92.3234 268.588 92.1922 268.182 92.1578 267.439C92.1203 266.633 92.1109 266.391 92.1109 264.352C92.1109 262.311 92.1203 262.069 92.1578 261.266C92.1922 260.52 92.3234 260.117 92.4328 259.848C92.5766 259.493 92.7516 259.236 93.0297 258.97C93.3109 258.702 93.5766 258.538 93.9484 258.4C94.2297 258.296 94.6547 258.17 95.4328 258.138C96.2734 258.102 96.5266 258.093 98.6641 258.093ZM98.6641 256.717C96.4922 256.717 96.2203 256.726 95.3672 256.762C94.5172 256.797 93.9328 256.929 93.4266 257.117C92.8984 257.314 92.4516 257.573 92.0078 258C91.5609 258.424 91.2891 258.851 91.0828 259.353C90.8859 259.839 90.7484 260.394 90.7109 261.206C90.6734 262.024 90.6641 262.284 90.6641 264.358C90.6641 266.433 90.6734 266.693 90.7109 267.508C90.7484 268.319 90.8859 268.878 91.0828 269.361C91.2891 269.866 91.5609 270.293 92.0078 270.716C92.4516 271.14 92.8984 271.403 93.4234 271.597C93.9328 271.785 94.5141 271.916 95.3641 271.952C96.2172 271.988 96.4891 271.997 98.6609 271.997C100.833 271.997 101.105 271.988 101.958 271.952C102.808 271.916 103.392 271.785 103.898 271.597C104.423 271.403 104.87 271.14 105.314 270.716C105.758 270.293 106.033 269.866 106.236 269.364C106.433 268.878 106.57 268.322 106.608 267.511C106.645 266.696 106.655 266.436 106.655 264.361C106.655 262.287 106.645 262.027 106.608 261.212C106.57 260.4 106.433 259.842 106.236 259.359C106.039 258.851 105.767 258.424 105.32 258C104.877 257.576 104.43 257.314 103.905 257.12C103.395 256.932 102.814 256.8 101.964 256.765C101.108 256.726 100.836 256.717 98.6641 256.717Z" fill="white"/>
<path d="M98.6641 260.433C96.3953 260.433 94.5547 262.191 94.5547 264.358C94.5547 266.525 96.3953 268.284 98.6641 268.284C100.933 268.284 102.773 266.525 102.773 264.358C102.773 262.191 100.933 260.433 98.6641 260.433ZM98.6641 266.905C97.1922 266.905 95.9984 265.764 95.9984 264.358C95.9984 262.952 97.1922 261.812 98.6641 261.812C100.136 261.812 101.33 262.952 101.33 264.358C101.33 265.764 100.136 266.905 98.6641 266.905Z" fill="white"/>
<path d="M103.895 260.278C103.895 260.785 103.464 261.194 102.936 261.194C102.405 261.194 101.977 260.782 101.977 260.278C101.977 259.77 102.408 259.362 102.936 259.362C103.464 259.362 103.895 259.773 103.895 260.278Z" fill="white"/>
</g>
<g clip-path="url(#clip2_1_1259)">
<path d="M148.148 256.717H134.513C133.86 256.717 133.332 257.209 133.332 257.818V270.896C133.332 271.504 133.86 272 134.513 272H148.148C148.801 272 149.332 271.504 149.332 270.899V257.818C149.332 257.209 148.801 256.717 148.148 256.717ZM138.079 269.74H135.704V262.445H138.079V269.74ZM136.891 261.451C136.129 261.451 135.513 260.863 135.513 260.138C135.513 259.412 136.129 258.824 136.891 258.824C137.651 258.824 138.266 259.412 138.266 260.138C138.266 260.86 137.651 261.451 136.891 261.451ZM146.966 269.74H144.595V266.194C144.595 265.349 144.579 264.26 143.36 264.26C142.126 264.26 141.938 265.182 141.938 266.134V269.74H139.57V262.445H141.845V263.442H141.876C142.191 262.869 142.966 262.263 144.12 262.263C146.523 262.263 146.966 263.773 146.966 265.737V269.74Z" fill="white"/>
</g>
<path d="M59.16 177.056V189.008C59.16 190.64 58.704 191.912 57.792 192.824C56.896 193.72 55.648 194.168 54.048 194.168C52.32 194.168 50.952 193.672 49.944 192.68C48.936 191.688 48.432 190.272 48.432 188.432H51.768C51.768 189.296 51.944 189.96 52.296 190.424C52.664 190.888 53.2 191.12 53.904 191.12C54.544 191.12 55.016 190.936 55.32 190.568C55.624 190.184 55.776 189.664 55.776 189.008V177.056H59.16ZM67.3299 180.536C68.4499 180.536 69.4099 180.8 70.2099 181.328C71.0099 181.856 71.5779 182.568 71.9139 183.464V180.704H75.2739V194H71.9139V191.216C71.5779 192.112 71.0099 192.832 70.2099 193.376C69.4099 193.904 68.4499 194.168 67.3299 194.168C66.2099 194.168 65.2019 193.896 64.3059 193.352C63.4099 192.808 62.7059 192.024 62.1939 191C61.6979 189.96 61.4499 188.744 61.4499 187.352C61.4499 185.96 61.6979 184.752 62.1939 183.728C62.7059 182.688 63.4099 181.896 64.3059 181.352C65.2019 180.808 66.2099 180.536 67.3299 180.536ZM68.3859 183.488C67.3299 183.488 66.4819 183.832 65.8419 184.52C65.2019 185.208 64.8819 186.152 64.8819 187.352C64.8819 188.552 65.2019 189.496 65.8419 190.184C66.4819 190.856 67.3299 191.192 68.3859 191.192C69.4099 191.192 70.2499 190.848 70.9059 190.16C71.5779 189.456 71.9139 188.52 71.9139 187.352C71.9139 186.168 71.5779 185.232 70.9059 184.544C70.2499 183.84 69.4099 183.488 68.3859 183.488ZM84.1247 190.616L87.4847 180.704H91.0847L86.1647 194H82.0367L77.1167 180.704H80.7407L84.1247 190.616ZM105.47 186.848C105.47 187.184 105.43 187.568 105.35 188H95.6057C95.6537 189.184 95.9737 190.056 96.5657 190.616C97.1577 191.176 97.8937 191.456 98.7737 191.456C99.5577 191.456 100.206 191.264 100.718 190.88C101.246 190.496 101.582 189.976 101.726 189.32H105.302C105.126 190.248 104.75 191.08 104.174 191.816C103.598 192.552 102.854 193.128 101.942 193.544C101.046 193.96 100.046 194.168 98.9417 194.168C97.6457 194.168 96.4937 193.896 95.4857 193.352C94.4777 192.792 93.6937 192 93.1337 190.976C92.5737 189.952 92.2937 188.744 92.2937 187.352C92.2937 185.96 92.5737 184.752 93.1337 183.728C93.6937 182.688 94.4777 181.896 95.4857 181.352C96.4937 180.808 97.6457 180.536 98.9417 180.536C100.254 180.536 101.398 180.808 102.374 181.352C103.366 181.896 104.126 182.648 104.654 183.608C105.198 184.552 105.47 185.632 105.47 186.848ZM102.062 186.512C102.11 185.424 101.822 184.6 101.198 184.04C100.59 183.48 99.8377 183.2 98.9417 183.2C98.0297 183.2 97.2617 183.48 96.6377 184.04C96.0137 184.6 95.6697 185.424 95.6057 186.512H102.062ZM115.792 180.512C117.328 180.512 118.552 181.016 119.464 182.024C120.376 183.032 120.832 184.448 120.832 186.272V194H117.472V186.656C117.472 185.6 117.2 184.784 116.656 184.208C116.112 183.616 115.368 183.32 114.424 183.32C113.464 183.32 112.696 183.632 112.12 184.256C111.544 184.88 111.256 185.776 111.256 186.944V194H107.872V180.704H111.256V183.368C111.608 182.472 112.184 181.776 112.984 181.28C113.8 180.768 114.736 180.512 115.792 180.512ZM129.017 180.536C130.137 180.536 131.097 180.8 131.897 181.328C132.697 181.856 133.265 182.568 133.601 183.464V180.704H136.961V194H133.601V191.216C133.265 192.112 132.697 192.832 131.897 193.376C131.097 193.904 130.137 194.168 129.017 194.168C127.897 194.168 126.889 193.896 125.993 193.352C125.097 192.808 124.393 192.024 123.881 191C123.385 189.96 123.137 188.744 123.137 187.352C123.137 185.96 123.385 184.752 123.881 183.728C124.393 182.688 125.097 181.896 125.993 181.352C126.889 180.808 127.897 180.536 129.017 180.536ZM130.073 183.488C129.017 183.488 128.169 183.832 127.529 184.52C126.889 185.208 126.569 186.152 126.569 187.352C126.569 188.552 126.889 189.496 127.529 190.184C128.169 190.856 129.017 191.192 130.073 191.192C131.097 191.192 131.937 190.848 132.593 190.16C133.265 189.456 133.601 188.52 133.601 187.352C133.601 186.168 133.265 185.232 132.593 184.544C131.937 183.84 131.097 183.488 130.073 183.488ZM163.519 177.248V194H160.159V182.312L155.863 194H152.935L148.639 182.36V194H145.255V177.248H149.359L154.447 189.848L159.439 177.248H163.519ZM179.087 186.848C179.087 187.184 179.047 187.568 178.967 188H169.223C169.271 189.184 169.591 190.056 170.183 190.616C170.775 191.176 171.511 191.456 172.391 191.456C173.175 191.456 173.823 191.264 174.335 190.88C174.863 190.496 175.199 189.976 175.343 189.32H178.919C178.743 190.248 178.367 191.08 177.791 191.816C177.215 192.552 176.471 193.128 175.559 193.544C174.663 193.96 173.663 194.168 172.559 194.168C171.263 194.168 170.111 193.896 169.103 193.352C168.095 192.792 167.311 192 166.751 190.976C166.191 189.952 165.911 188.744 165.911 187.352C165.911 185.96 166.191 184.752 166.751 183.728C167.311 182.688 168.095 181.896 169.103 181.352C170.111 180.808 171.263 180.536 172.559 180.536C173.871 180.536 175.015 180.808 175.991 181.352C176.983 181.896 177.743 182.648 178.271 183.608C178.815 184.552 179.087 185.632 179.087 186.848ZM175.679 186.512C175.727 185.424 175.439 184.6 174.815 184.04C174.207 183.48 173.455 183.2 172.559 183.2C171.647 183.2 170.879 183.48 170.255 184.04C169.631 184.6 169.287 185.424 169.223 186.512H175.679ZM184.873 176.24V194H181.489V176.24H184.873ZM194.078 180.536C195.374 180.536 196.534 180.808 197.558 181.352C198.598 181.896 199.414 182.688 200.006 183.728C200.598 184.752 200.894 185.96 200.894 187.352C200.894 188.744 200.598 189.952 200.006 190.976C199.414 192 198.598 192.792 197.558 193.352C196.534 193.896 195.374 194.168 194.078 194.168C192.782 194.168 191.614 193.896 190.574 193.352C189.55 192.792 188.742 192 188.15 190.976C187.558 189.952 187.262 188.744 187.262 187.352C187.262 185.96 187.558 184.752 188.15 183.728C188.742 182.688 189.55 181.896 190.574 181.352C191.614 180.808 192.782 180.536 194.078 180.536ZM194.078 183.464C193.134 183.464 192.334 183.8 191.678 184.472C191.022 185.128 190.694 186.088 190.694 187.352C190.694 188.616 191.022 189.584 191.678 190.256C192.334 190.912 193.134 191.24 194.078 191.24C195.022 191.24 195.822 190.912 196.478 190.256C197.134 189.584 197.462 188.616 197.462 187.352C197.462 186.088 197.134 185.128 196.478 184.472C195.822 183.8 195.022 183.464 194.078 183.464Z" fill="white"/>
<path opacity="0.7" d="M55.462 224.368C55.462 224.853 55.3453 225.306 55.112 225.726C54.8787 226.137 54.524 226.468 54.048 226.72C53.572 226.972 52.9887 227.098 52.298 227.098C51.626 227.098 51.024 226.981 50.492 226.748C49.96 226.505 49.5353 226.169 49.218 225.74C48.9007 225.311 48.7187 224.816 48.672 224.256H50.38C50.4267 224.685 50.6087 225.054 50.926 225.362C51.2527 225.67 51.6867 225.824 52.228 225.824C52.7133 225.824 53.0867 225.693 53.348 225.432C53.6187 225.171 53.754 224.835 53.754 224.424C53.754 224.069 53.656 223.78 53.46 223.556C53.264 223.323 53.0213 223.141 52.732 223.01C52.4427 222.879 52.046 222.73 51.542 222.562C50.926 222.366 50.422 222.17 50.03 221.974C49.6473 221.778 49.3207 221.493 49.05 221.12C48.7793 220.747 48.644 220.257 48.644 219.65C48.644 219.118 48.7747 218.651 49.036 218.25C49.2973 217.849 49.6707 217.541 50.156 217.326C50.6413 217.102 51.2013 216.99 51.836 216.99C52.844 216.99 53.642 217.233 54.23 217.718C54.8273 218.203 55.168 218.838 55.252 219.622H53.53C53.4647 219.249 53.2873 218.931 52.998 218.67C52.718 218.399 52.3307 218.264 51.836 218.264C51.388 218.264 51.0287 218.381 50.758 218.614C50.4873 218.838 50.352 219.165 50.352 219.594C50.352 219.93 50.4453 220.21 50.632 220.434C50.8187 220.649 51.052 220.821 51.332 220.952C51.6213 221.073 52.0133 221.218 52.508 221.386C53.1333 221.582 53.642 221.783 54.034 221.988C54.4353 222.184 54.7713 222.473 55.042 222.856C55.322 223.239 55.462 223.743 55.462 224.368ZM64.1718 219.286V227H62.5618V225.32C62.3658 225.889 62.0251 226.333 61.5398 226.65C61.0544 226.958 60.4898 227.112 59.8458 227.112C58.9498 227.112 58.2311 226.823 57.6898 226.244C57.1484 225.665 56.8778 224.839 56.8778 223.766V219.286H58.4738V223.598C58.4738 224.298 58.6511 224.839 59.0058 225.222C59.3604 225.595 59.8458 225.782 60.4618 225.782C61.0964 225.782 61.6051 225.577 61.9878 225.166C62.3704 224.755 62.5618 224.158 62.5618 223.374V219.286H64.1718ZM70.5072 219.188C71.1792 219.188 71.7765 219.347 72.2992 219.664C72.8312 219.981 73.2465 220.439 73.5452 221.036C73.8439 221.633 73.9932 222.333 73.9932 223.136C73.9932 223.948 73.8439 224.653 73.5452 225.25C73.2465 225.847 72.8312 226.305 72.2992 226.622C71.7765 226.939 71.1792 227.098 70.5072 227.098C69.8072 227.098 69.2099 226.925 68.7152 226.58C68.2205 226.235 67.8752 225.777 67.6792 225.208V230.668H66.0832V219.286H67.6792V221.078C67.8752 220.509 68.2205 220.051 68.7152 219.706C69.2099 219.361 69.8072 219.188 70.5072 219.188ZM70.0172 220.588C69.5692 220.588 69.1679 220.695 68.8132 220.91C68.4585 221.115 68.1785 221.414 67.9732 221.806C67.7679 222.189 67.6652 222.632 67.6652 223.136C67.6652 223.649 67.7679 224.097 67.9732 224.48C68.1785 224.863 68.4585 225.161 68.8132 225.376C69.1679 225.581 69.5692 225.684 70.0172 225.684C70.7265 225.684 71.2959 225.46 71.7252 225.012C72.1545 224.555 72.3692 223.929 72.3692 223.136C72.3692 222.352 72.1545 221.731 71.7252 221.274C71.2959 220.817 70.7265 220.588 70.0172 220.588ZM79.9545 219.188C80.6265 219.188 81.2238 219.347 81.7465 219.664C82.2785 219.981 82.6938 220.439 82.9925 221.036C83.2911 221.633 83.4405 222.333 83.4405 223.136C83.4405 223.948 83.2911 224.653 82.9925 225.25C82.6938 225.847 82.2785 226.305 81.7465 226.622C81.2238 226.939 80.6265 227.098 79.9545 227.098C79.2545 227.098 78.6571 226.925 78.1625 226.58C77.6678 226.235 77.3225 225.777 77.1265 225.208V230.668H75.5305V219.286H77.1265V221.078C77.3225 220.509 77.6678 220.051 78.1625 219.706C78.6571 219.361 79.2545 219.188 79.9545 219.188ZM79.4645 220.588C79.0165 220.588 78.6151 220.695 78.2605 220.91C77.9058 221.115 77.6258 221.414 77.4205 221.806C77.2151 222.189 77.1125 222.632 77.1125 223.136C77.1125 223.649 77.2151 224.097 77.4205 224.48C77.6258 224.863 77.9058 225.161 78.2605 225.376C78.6151 225.581 79.0165 225.684 79.4645 225.684C80.1738 225.684 80.7431 225.46 81.1725 225.012C81.6018 224.555 81.8165 223.929 81.8165 223.136C81.8165 222.352 81.6018 221.731 81.1725 221.274C80.7431 220.817 80.1738 220.588 79.4645 220.588ZM88.5057 219.188C89.2524 219.188 89.9244 219.347 90.5217 219.664C91.1191 219.981 91.5857 220.439 91.9217 221.036C92.2577 221.633 92.4257 222.333 92.4257 223.136C92.4257 223.948 92.2577 224.653 91.9217 225.25C91.5857 225.847 91.1191 226.305 90.5217 226.622C89.9244 226.939 89.2524 227.098 88.5057 227.098C87.7591 227.098 87.0871 226.939 86.4897 226.622C85.9017 226.305 85.4351 225.847 85.0897 225.25C84.7537 224.643 84.5857 223.939 84.5857 223.136C84.5857 222.333 84.7537 221.633 85.0897 221.036C85.4351 220.439 85.9017 219.981 86.4897 219.664C87.0871 219.347 87.7591 219.188 88.5057 219.188ZM88.5057 220.574C88.0951 220.574 87.7171 220.667 87.3717 220.854C87.0264 221.041 86.7464 221.33 86.5317 221.722C86.3264 222.105 86.2237 222.576 86.2237 223.136C86.2237 223.705 86.3264 224.181 86.5317 224.564C86.7464 224.947 87.0264 225.231 87.3717 225.418C87.7171 225.605 88.0951 225.698 88.5057 225.698C88.9164 225.698 89.2944 225.605 89.6397 225.418C89.9851 225.231 90.2604 224.947 90.4657 224.564C90.6804 224.181 90.7877 223.705 90.7877 223.136C90.7877 222.576 90.6804 222.105 90.4657 221.722C90.2604 221.33 89.9851 221.041 89.6397 220.854C89.2944 220.667 88.9164 220.574 88.5057 220.574ZM95.5561 220.798C95.8175 220.294 96.1908 219.897 96.6761 219.608C97.1615 219.309 97.7215 219.16 98.3561 219.16V220.896H97.8801C97.1801 220.896 96.6155 221.069 96.1861 221.414C95.7661 221.75 95.5561 222.31 95.5561 223.094V227H93.9601V219.286H95.5561V220.798ZM103.43 225.614V227H102.45C101.629 227 101.003 226.804 100.574 226.412C100.154 226.011 99.9439 225.348 99.9439 224.424V220.644H98.8379V219.286H99.9439V217.368H101.554V219.286H103.416V220.644H101.554V224.452C101.554 224.891 101.633 225.194 101.792 225.362C101.96 225.53 102.249 225.614 102.66 225.614H103.43ZM114.1 224.858H109.928L109.172 227H107.464L111.104 217.27H112.938L116.564 227H114.856L114.1 224.858ZM113.652 223.626L112.014 219.006L110.376 223.626H113.652ZM120.283 219.188C121.189 219.188 121.912 219.421 122.453 219.888C123.004 220.345 123.34 220.961 123.461 221.736H121.949C121.884 221.316 121.702 220.98 121.403 220.728C121.114 220.467 120.727 220.336 120.241 220.336C119.84 220.336 119.527 220.434 119.303 220.63C119.089 220.817 118.981 221.073 118.981 221.4C118.981 221.643 119.061 221.839 119.219 221.988C119.378 222.137 119.574 222.254 119.807 222.338C120.05 222.422 120.391 222.515 120.829 222.618C121.408 222.749 121.875 222.884 122.229 223.024C122.593 223.164 122.901 223.388 123.153 223.696C123.415 223.995 123.545 224.405 123.545 224.928C123.545 225.572 123.298 226.095 122.803 226.496C122.318 226.897 121.66 227.098 120.829 227.098C119.868 227.098 119.089 226.874 118.491 226.426C117.903 225.978 117.549 225.353 117.427 224.55H118.981C119.028 224.97 119.215 225.311 119.541 225.572C119.868 225.833 120.297 225.964 120.829 225.964C121.212 225.964 121.511 225.866 121.725 225.67C121.949 225.465 122.061 225.208 122.061 224.9C122.061 224.629 121.977 224.415 121.809 224.256C121.641 224.097 121.431 223.976 121.179 223.892C120.927 223.799 120.582 223.705 120.143 223.612C119.583 223.481 119.126 223.351 118.771 223.22C118.426 223.089 118.127 222.879 117.875 222.59C117.633 222.291 117.511 221.89 117.511 221.386C117.511 220.733 117.754 220.205 118.239 219.804C118.734 219.393 119.415 219.188 120.283 219.188ZM127.68 219.188C128.585 219.188 129.308 219.421 129.85 219.888C130.4 220.345 130.736 220.961 130.858 221.736H129.346C129.28 221.316 129.098 220.98 128.8 220.728C128.51 220.467 128.123 220.336 127.638 220.336C127.236 220.336 126.924 220.434 126.7 220.63C126.485 220.817 126.378 221.073 126.378 221.4C126.378 221.643 126.457 221.839 126.616 221.988C126.774 222.137 126.97 222.254 127.204 222.338C127.446 222.422 127.787 222.515 128.226 222.618C128.804 222.749 129.271 222.884 129.626 223.024C129.99 223.164 130.298 223.388 130.55 223.696C130.811 223.995 130.942 224.405 130.942 224.928C130.942 225.572 130.694 226.095 130.2 226.496C129.714 226.897 129.056 227.098 128.226 227.098C127.264 227.098 126.485 226.874 125.888 226.426C125.3 225.978 124.945 225.353 124.824 224.55H126.378C126.424 224.97 126.611 225.311 126.938 225.572C127.264 225.833 127.694 225.964 128.226 225.964C128.608 225.964 128.907 225.866 129.122 225.67C129.346 225.465 129.458 225.208 129.458 224.9C129.458 224.629 129.374 224.415 129.206 224.256C129.038 224.097 128.828 223.976 128.576 223.892C128.324 223.799 127.978 223.705 127.54 223.612C126.98 223.481 126.522 223.351 126.168 223.22C125.822 223.089 125.524 222.879 125.272 222.59C125.029 222.291 124.908 221.89 124.908 221.386C124.908 220.733 125.15 220.205 125.636 219.804C126.13 219.393 126.812 219.188 127.68 219.188ZM132.318 217.046C132.318 216.775 132.412 216.551 132.598 216.374C132.785 216.197 133.032 216.108 133.34 216.108C133.648 216.108 133.896 216.197 134.082 216.374C134.278 216.551 134.376 216.775 134.376 217.046C134.376 217.317 134.278 217.536 134.082 217.704C133.896 217.872 133.648 217.956 133.34 217.956C133.032 217.956 132.785 217.872 132.598 217.704C132.412 217.536 132.318 217.317 132.318 217.046ZM134.138 219.286V227H132.542V219.286H134.138ZM138.604 219.188C139.509 219.188 140.232 219.421 140.774 219.888C141.324 220.345 141.66 220.961 141.782 221.736H140.27C140.204 221.316 140.022 220.98 139.724 220.728C139.434 220.467 139.047 220.336 138.562 220.336C138.16 220.336 137.848 220.434 137.624 220.63C137.409 220.817 137.302 221.073 137.302 221.4C137.302 221.643 137.381 221.839 137.54 221.988C137.698 222.137 137.894 222.254 138.128 222.338C138.37 222.422 138.711 222.515 139.15 222.618C139.728 222.749 140.195 222.884 140.55 223.024C140.914 223.164 141.222 223.388 141.474 223.696C141.735 223.995 141.866 224.405 141.866 224.928C141.866 225.572 141.618 226.095 141.124 226.496C140.638 226.897 139.98 227.098 139.15 227.098C138.188 227.098 137.409 226.874 136.812 226.426C136.224 225.978 135.869 225.353 135.748 224.55H137.302C137.348 224.97 137.535 225.311 137.862 225.572C138.188 225.833 138.618 225.964 139.15 225.964C139.532 225.964 139.831 225.866 140.046 225.67C140.27 225.465 140.382 225.208 140.382 224.9C140.382 224.629 140.298 224.415 140.13 224.256C139.962 224.097 139.752 223.976 139.5 223.892C139.248 223.799 138.902 223.705 138.464 223.612C137.904 223.481 137.446 223.351 137.092 223.22C136.746 223.089 136.448 222.879 136.196 222.59C135.953 222.291 135.832 221.89 135.832 221.386C135.832 220.733 136.074 220.205 136.56 219.804C137.054 219.393 137.736 219.188 138.604 219.188ZM147.344 225.614V227H146.364C145.543 227 144.917 226.804 144.488 226.412C144.068 226.011 143.858 225.348 143.858 224.424V220.644H142.752V219.286H143.858V217.368H145.468V219.286H147.33V220.644H145.468V224.452C145.468 224.891 145.547 225.194 145.706 225.362C145.874 225.53 146.163 225.614 146.574 225.614H147.344Z" fill="white"/>
<defs>
<clipPath id="clip0_1_1259">
<rect width="16" height="15.2832" fill="white" transform="translate(48 256.717)"/>
</clipPath>
<clipPath id="clip1_1_1259">
<rect width="16" height="15.2832" fill="white" transform="translate(90.6641 256.717)"/>
</clipPath>
<clipPath id="clip2_1_1259">
<rect width="16" height="15.2832" fill="white" transform="translate(133.332 256.717)"/>
</clipPath>
</defs>
</svg>
