<svg width="26" height="27" viewBox="0 0 26 27" fill="none" xmlns="http://www.w3.org/2000/svg">
<path d="M12.6162 17.3178L12.5963 17.2989C13.1564 17.3555 13.722 17.2865 14.2523 17.0969C14.7825 16.9073 15.2642 16.6018 15.6624 16.2024C16.0606 15.8031 16.3654 15.32 16.5547 14.788C16.7441 14.2559 16.8132 13.6883 16.7572 13.1262L16.7771 13.1451C16.7215 12.4837 16.8103 11.8182 17.0375 11.1949C17.2646 10.5715 17.6245 10.0055 18.0922 9.53617C18.5598 9.06686 19.1238 8.70563 19.7449 8.47768C20.366 8.24974 21.0292 8.16056 21.6882 8.21639L21.6683 8.19749C22.4567 8.27179 23.2486 8.10022 23.9362 7.70619C24.6238 7.31217 25.1736 6.71486 25.5105 5.99575C25.8474 5.27664 25.9551 4.47073 25.8188 3.68795C25.6826 2.90516 25.309 2.18362 24.7491 1.62173C24.1893 1.05984 23.4703 0.684953 22.6903 0.548212C21.9103 0.411471 21.1073 0.519528 20.3907 0.857648C19.6742 1.19577 19.079 1.74749 18.6864 2.43755C18.2938 3.12762 18.1228 3.92243 18.1969 4.71359L18.178 4.69363C18.2339 5.35502 18.1451 6.02066 17.9181 6.64407C17.691 7.26748 17.331 7.83362 16.8634 8.30297C16.3957 8.77231 15.8316 9.13354 15.2104 9.36142C14.5892 9.58931 13.926 9.67835 13.267 9.62234L13.2858 9.64229C12.7257 9.58565 12.1601 9.65464 11.6298 9.84426C11.0995 10.0339 10.6179 10.3394 10.2197 10.7387C9.8215 11.1381 9.5167 11.6212 9.32735 12.1532C9.13801 12.6852 9.06884 13.2529 9.12485 13.815L9.10602 13.7961C9.16146 14.4574 9.07248 15.1229 8.84528 15.7461C8.61808 16.3693 8.25813 16.9353 7.79055 17.4046C7.32296 17.8739 6.75899 18.2351 6.13798 18.4631C5.51697 18.6911 4.85387 18.7804 4.19493 18.7248L4.21376 18.7437C3.42543 18.6694 2.63345 18.841 1.94586 19.235C1.25826 19.629 0.708508 20.2263 0.371597 20.9454C0.0346853 21.6645 -0.0729878 22.4704 0.0632645 23.2532C0.199517 24.036 0.573062 24.7576 1.13295 25.3195C1.69283 25.8813 2.4118 26.2562 3.19179 26.393C3.97177 26.5297 4.7748 26.4216 5.49134 26.0835C6.20789 25.7454 6.80306 25.1937 7.19567 24.5036C7.58829 23.8136 7.75924 23.0187 7.68521 22.2276L7.70509 22.2465C7.64946 21.5851 7.73832 20.9196 7.96545 20.2963C8.19259 19.6729 8.55253 19.1069 9.02016 18.6376C9.48778 18.1683 10.0518 17.807 10.6729 17.5791C11.294 17.3511 11.9572 17.262 12.6162 17.3178Z" fill="#232536"/>
</svg>
