<svg width="29" height="29" viewBox="0 0 29 29" fill="none" xmlns="http://www.w3.org/2000/svg">
<path d="M27.3573 8.85098C26.822 7.62916 26.1135 6.49051 25.2536 5.46998C23.9824 3.91634 22.3959 2.64905 20.5987 1.75152C18.8015 0.853993 16.8343 0.34658 14.8265 0.262677C12.8187 0.178774 10.8158 0.52028 8.94973 1.26472C7.08367 2.00917 5.39669 3.13967 3.99984 4.58182C2.60299 6.02397 1.52794 7.74507 0.845438 9.63185C0.162936 11.5186 -0.11154 13.5283 0.0400764 15.5286C0.191693 17.5289 0.765965 19.4744 1.72509 21.2372C2.68422 23 4.00646 24.5401 5.60479 25.756C6.63036 26.5518 7.76358 27.1987 8.97075 27.6775C10.6632 28.3698 12.4746 28.7265 14.3037 28.7275C18.0792 28.7191 21.6975 27.2168 24.3652 24.5499C27.033 21.8829 28.5326 18.2689 28.5354 14.5C28.5382 12.5559 28.137 10.6324 27.3573 8.85098ZM14.2932 3.14948C15.9357 3.1493 17.5584 3.50767 19.0476 4.19948C18.6844 4.35611 18.3026 4.4655 17.9116 4.52498C16.6247 4.71093 15.4326 5.30731 14.5132 6.22511C13.5938 7.14291 12.9963 8.3329 12.81 9.61748C12.7283 10.3379 12.4 11.0081 11.8807 11.515C11.3614 12.0219 10.6828 12.3345 9.95949 12.4C8.67264 12.5859 7.48054 13.1823 6.56111 14.1001C5.64168 15.0179 5.04424 16.2079 4.85797 17.4925C4.7949 18.1775 4.50211 18.8212 4.02699 19.3195C3.20723 17.5904 2.83897 15.6824 2.95649 13.7731C3.074 11.8637 3.67346 10.0151 4.6991 8.39922C5.72474 6.78332 7.14321 5.45268 8.82251 4.53112C10.5018 3.60957 12.3874 3.12705 14.3037 3.12848L14.2932 3.14948ZM5.59427 21.85C5.72049 21.7345 5.84672 21.6295 5.97294 21.5035C6.90873 20.5978 7.50941 19.4023 7.67696 18.112C7.74489 17.3867 8.0693 16.7092 8.59207 16.201C9.09513 15.6783 9.77223 15.3571 10.4959 15.298C11.7828 15.112 12.9749 14.5156 13.8943 13.5978C14.8138 12.6801 15.4112 11.4901 15.5975 10.2055C15.643 9.44687 15.9691 8.73216 16.5126 8.19998C17.0281 7.68742 17.7116 7.37794 18.4375 7.32848C19.6197 7.16611 20.7223 6.64148 21.5931 5.82698C22.5846 6.64816 23.4247 7.63602 24.0755 8.74598C24.0355 8.7999 23.9897 8.8492 23.9387 8.89298C23.4367 9.42029 22.7604 9.74848 22.0349 9.81698C20.7467 9.99968 19.5528 10.595 18.6328 11.5134C17.7128 12.4318 17.1164 13.6236 16.9333 14.9095C16.8592 15.6323 16.537 16.3074 16.0213 16.8202C15.5057 17.3331 14.8282 17.6522 14.1038 17.7235C12.8132 17.908 11.6167 18.5032 10.6919 19.4206C9.76717 20.3381 9.16355 21.5288 8.97075 22.816C8.91414 23.3291 8.73759 23.8219 8.45533 24.2545C7.37612 23.6149 6.40955 22.8025 5.59427 21.85ZM14.2932 25.903C13.2258 25.9041 12.1636 25.7557 11.1376 25.462C11.4885 24.8089 11.7167 24.0971 11.8108 23.362C11.8845 22.6407 12.2052 21.967 12.7187 21.4543C13.2323 20.9417 13.9072 20.6216 14.6298 20.548C15.9185 20.3641 17.113 19.7687 18.0345 18.8507C18.956 17.9327 19.555 16.7416 19.7418 15.4555C19.8155 14.7342 20.1362 14.0605 20.6498 13.5478C21.1633 13.0352 21.8383 12.7151 22.5608 12.6415C23.5306 12.5156 24.455 12.1551 25.2536 11.5915C25.697 13.2693 25.7495 15.0262 25.4071 16.7274C25.0647 18.4286 24.3365 20.0289 23.2783 21.4056C22.2201 22.7822 20.8601 23.8986 19.3026 24.6691C17.7451 25.4396 16.0314 25.8437 14.2932 25.8505V25.903Z" fill="#232536"/>
</svg>
