<svg width="33" height="33" viewBox="0 0 33 33" fill="none" xmlns="http://www.w3.org/2000/svg">
<path d="M32.0207 11.3656C32.0208 9.27577 31.3886 7.23464 30.2069 5.50955C29.0252 3.78446 27.3492 2.45585 25.3982 1.69774C23.4473 0.939638 21.3125 0.787386 19.2734 1.26093C17.2344 1.73447 15.3861 2.81172 13.9707 4.35159H0.843506V32.0086H28.5601V19.0831C29.6479 18.1118 30.5184 16.9225 31.1147 15.5927C31.711 14.2629 32.0197 12.8225 32.0207 11.3656ZM26.6878 11.3656C26.6898 12.367 26.3943 13.3465 25.8384 14.1802C25.2826 15.0138 24.4915 15.6642 23.5653 16.0488C22.639 16.4335 21.6193 16.5352 20.6351 16.3411C19.651 16.147 18.7466 15.6658 18.0365 14.9585C17.3264 14.2511 16.8425 13.3493 16.646 12.3673C16.4495 11.3853 16.5493 10.3672 16.9327 9.44177C17.3162 8.51638 17.966 7.72533 18.8 7.16876C19.6339 6.61218 20.6146 6.3151 21.6178 6.31509C22.9606 6.31509 24.2486 6.84686 25.1991 7.79371C26.1496 8.74056 26.685 10.0252 26.6878 11.3656ZM23.2271 26.6851H6.17645V9.67509H11.3726C11.2723 10.2331 11.2195 10.7987 11.2149 11.3656C11.2176 14.1189 12.3146 16.7586 14.2649 18.7055C16.2152 20.6523 18.8596 21.7473 21.6178 21.7501C22.157 21.7472 22.6951 21.7016 23.2271 21.6136V26.6851Z" fill="#232536"/>
</svg>
