<svg width="30" height="26" viewBox="0 0 30 26" fill="none" xmlns="http://www.w3.org/2000/svg">
<path d="M0.86841 11.5129C1.64029 8.42894 3.42795 5.69035 5.94674 3.73318C8.46554 1.776 11.5706 0.712769 14.7677 0.712769C17.9647 0.712769 21.0698 1.776 23.5886 3.73318C26.1074 5.69035 27.895 8.42894 28.6669 11.5129H27.4114C25.2935 11.4819 23.219 12.1111 21.4793 13.3121C21.3789 13.3843 21.274 13.4503 21.1654 13.5097H21.0189C20.9103 13.4503 20.8055 13.3843 20.7051 13.3121C18.9499 12.1389 16.8828 11.5122 14.7677 11.5122C12.6526 11.5122 10.5855 12.1389 8.83027 13.3121C8.72987 13.3843 8.62504 13.4503 8.5164 13.5097H8.36993C8.26129 13.4503 8.15646 13.3843 8.05606 13.3121C6.31631 12.1111 4.24181 11.4819 2.12389 11.5129H0.86841ZM25.1516 18.0337C25.7961 17.5348 26.5948 17.2738 27.4114 17.2953H29.0959V13.9569H27.4114C25.9731 13.9396 24.5676 14.3846 23.4044 15.2257C22.7497 15.7054 21.9578 15.9642 21.1445 15.9642C20.3312 15.9642 19.5392 15.7054 18.8846 15.2257C17.6918 14.4003 16.2733 13.9578 14.82 13.9578C13.3666 13.9578 11.9481 14.4003 10.7553 15.2257C10.1007 15.7054 9.30878 15.9642 8.49548 15.9642C7.68218 15.9642 6.89023 15.7054 6.23561 15.2257C5.05796 14.3738 3.63235 13.9283 2.17621 13.9569H0.439453V17.2953H2.12389C2.94049 17.2738 3.73927 17.5348 4.38377 18.0337C5.57439 18.8596 6.9913 19.3024 8.44317 19.3024C9.89503 19.3024 11.3119 18.8596 12.5026 18.0337C13.1479 17.5363 13.9461 17.2755 14.7624 17.2953C15.5793 17.272 16.3786 17.5332 17.0223 18.0337C18.2151 18.8591 19.6336 19.3015 21.0869 19.3015C22.5403 19.3015 23.9588 18.8591 25.1516 18.0337ZM25.1516 24.0033C25.7961 23.5044 26.5948 23.2434 27.4114 23.2649H29.0959V19.9265H27.4114C25.9731 19.9092 24.5676 20.3542 23.4044 21.1953C22.7497 21.675 21.9578 21.9338 21.1445 21.9338C20.3312 21.9338 19.5392 21.675 18.8846 21.1953C17.6918 20.3699 16.2733 19.9275 14.82 19.9275C13.3666 19.9275 11.9481 20.3699 10.7553 21.1953C10.1007 21.675 9.30878 21.9338 8.49548 21.9338C7.68218 21.9338 6.89023 21.675 6.23561 21.1953C5.05796 20.3435 3.63235 19.8979 2.17621 19.9265H0.439453V23.2649H2.12389C2.94049 23.2434 3.73927 23.5044 4.38377 24.0033C5.57439 24.8292 6.9913 25.2721 8.44317 25.2721C9.89503 25.2721 11.3119 24.8292 12.5026 24.0033C13.1479 23.5059 13.9461 23.2451 14.7624 23.2649C15.5793 23.2416 16.3786 23.5028 17.0223 24.0033C18.2151 24.8287 19.6336 25.2711 21.0869 25.2711C22.5403 25.2711 23.9588 24.8287 25.1516 24.0033Z" fill="#232536"/>
</svg>
