<svg width="47" height="47" viewBox="0 0 47 47" fill="none" xmlns="http://www.w3.org/2000/svg">
<circle opacity="0.5" cx="23.5" cy="23.5" r="23.5" fill="#FFE6D2"/>
<g clip-path="url(#clip0_1_1333)">
<path d="M34.9716 12.7918C34.9197 11.8384 34.1615 11.0803 33.2081 11.0283C31.2845 10.9232 27.5202 11.0254 23.9208 12.8872C22.0858 13.8363 20.1452 15.4455 18.5965 17.3021C18.5774 17.325 18.5589 17.348 18.5399 17.3709L15.0253 17.6424C14.4467 17.6871 13.9314 17.9904 13.6115 18.4743L11.2136 22.1011C10.9709 22.4681 10.9324 22.9275 11.1103 23.3298C11.2884 23.7322 11.6542 24.0126 12.089 24.0799L15.0501 24.5386C15.0396 24.5961 15.0291 24.6536 15.0195 24.7112C14.921 25.3009 15.1163 25.9072 15.5422 26.333L19.6669 30.4577C20.02 30.8108 20.4971 31.0055 20.986 31.0055C21.0867 31.0055 21.188 30.9972 21.2887 30.9804C21.3463 30.9707 21.4038 30.9602 21.4614 30.9498L21.92 33.911C21.9874 34.3457 22.2678 34.7116 22.67 34.8896C22.8374 34.9636 23.0146 35.0002 23.1909 35.0002C23.4386 35.0002 23.6845 34.9281 23.8988 34.7864L27.5256 32.3885C28.0096 32.0685 28.3128 31.5532 28.3574 30.9747L28.6289 27.46C28.6518 27.4411 28.6749 27.4225 28.6978 27.4035C30.5544 25.8548 32.1636 23.9141 33.1127 22.0792C34.9745 18.4796 35.0766 14.7153 34.9716 12.7918ZM26.75 31.2154L23.2808 33.5091L22.8338 30.6233C24.3 30.1921 25.7505 29.5017 27.1323 28.5767L26.9555 30.8663C26.9444 31.0091 26.8695 31.1364 26.75 31.2154ZM20.6612 29.4633L16.5365 25.3387C16.4313 25.2334 16.3827 25.0855 16.4065 24.943C16.5291 24.2098 16.7197 23.5118 16.9556 22.8542L23.1444 29.043C22.3546 29.3259 21.6472 29.4946 21.0568 29.5934C20.9142 29.6171 20.7665 29.5686 20.6612 29.4633ZM15.1336 19.0445L17.4231 18.8676C16.4981 20.2494 15.8076 21.6999 15.3765 23.1661L12.4907 22.7192L14.7845 19.2499C14.8635 19.1304 14.9908 19.0555 15.1336 19.0445ZM27.7971 26.3235C26.6612 27.271 25.5585 27.9563 24.5422 28.4522L17.5475 21.4575C18.197 20.1307 18.9898 19.0259 19.6764 18.2029C21.1096 16.4847 22.8921 15.0024 24.5669 14.1362C27.8704 12.4275 31.3509 12.3354 33.1316 12.4324C33.3673 12.4452 33.5547 12.6327 33.5675 12.8684C33.6646 14.6491 33.5724 18.1296 31.8637 21.4331C30.9975 23.1078 29.5153 24.8903 27.7971 26.3235Z" fill="#FFA155"/>
<path d="M27.4401 22.0739C28.3402 22.0738 29.2407 21.7311 29.9259 21.0458C30.5899 20.3819 30.9556 19.499 30.9556 18.56C30.9556 17.621 30.5899 16.7382 29.9259 16.0742C28.5552 14.7034 26.3249 14.7035 24.9543 16.0742C24.2902 16.7382 23.9246 17.621 23.9246 18.56C23.9246 19.499 24.2903 20.3819 24.9543 21.0458C25.6397 21.7312 26.5397 22.0739 27.4401 22.0739ZM25.9485 17.0685C26.3597 16.6573 26.8999 16.4517 27.44 16.4517C27.9802 16.4517 28.5203 16.6573 28.9315 17.0685C29.3299 17.4669 29.5493 17.9966 29.5493 18.56C29.5493 19.1234 29.3299 19.6531 28.9315 20.0515C28.1091 20.8739 26.7709 20.8739 25.9485 20.0515C25.5501 19.6531 25.3307 19.1234 25.3307 18.56C25.3307 17.9966 25.5501 17.4669 25.9485 17.0685Z" fill="#444CFC"/>
<path d="M11.7173 30.7783C11.8972 30.7783 12.0772 30.7097 12.2144 30.5723L14.51 28.2767C14.7846 28.0021 14.7846 27.557 14.51 27.2824C14.2355 27.0078 13.7903 27.0078 13.5157 27.2824L11.2201 29.578C10.9455 29.8526 10.9455 30.2977 11.2201 30.5723C11.3574 30.7096 11.5373 30.7783 11.7173 30.7783Z" fill="#FFA155"/>
<path d="M16.6138 29.3862C16.3392 29.1116 15.894 29.1116 15.6194 29.3862L11.2059 33.7998C10.9314 34.0744 10.9314 34.5195 11.2059 34.7941C11.3432 34.9314 11.5231 35 11.7031 35C11.8831 35 12.063 34.9314 12.2003 34.7941L16.6137 30.3806C16.8884 30.106 16.8884 29.6608 16.6138 29.3862Z" fill="#FFA155"/>
<path d="M17.7232 31.49L15.4276 33.7856C15.153 34.0602 15.153 34.5054 15.4276 34.78C15.5649 34.9173 15.7449 34.9859 15.9248 34.9859C16.1047 34.9859 16.2847 34.9173 16.4219 34.78L18.7175 32.4844C18.9921 32.2098 18.9921 31.7646 18.7175 31.49C18.443 31.2154 17.9978 31.2154 17.7232 31.49Z" fill="#FFA155"/>
</g>
<defs>
<clipPath id="clip0_1_1333">
<rect width="24" height="24" fill="white" transform="translate(11 11)"/>
</clipPath>
</defs>
</svg>
